<svg xmlns="http://www.w3.org/2000/svg" viewBox="0 0 24 24" height="16" width="16" fill="none" stroke="currentColor" stroke-linecap="round" stroke-linejoin="round" stroke-width="2"><path d="m2,3.25c0-.69.56-1.25,1.25-1.25h5c.69,0,1.25.56,1.25,1.25v5c0,.69-.56,1.25-1.25,1.25H3.25c-.69,0-1.25-.56-1.25-1.25V3.25Z" /><path d="m2,15.75c0-.69.56-1.25,1.25-1.25h5c.69,0,1.25.56,1.25,1.25v5c0,.69-.56,1.25-1.25,1.25H3.25c-.69,0-1.25-.56-1.25-1.25v-5Z" /><path d="m14.5,15.75c0-.69.56-1.25,1.25-1.25h5c.69,0,1.25.56,1.25,1.25v5c0,.69-.56,1.25-1.25,1.25h-5c-.69,0-1.25-.56-1.25-1.25v-5Z" /><path d="m14.5,5.75h7.5" /><path d="m18.25,2v7.5" /></svg>