<svg xmlns="http://www.w3.org/2000/svg" viewBox="0 0 24 24" fill="none" stroke="currentColor" stroke-width="2" stroke-linecap="round" stroke-linejoin="round"><path d="m7.56,22h8.89c3.07,0,5.56-2.49,5.56-5.56v-3.33c0-1.84-1.49-3.33-3.33-3.33h-1.11v-2.22c0-3.07-2.49-5.56-5.56-5.56h-4.44c-3.07,0-5.56,2.49-5.56,5.56v8.89c0,3.07,2.49,5.56,5.56,5.56Zm-1.11-13.89c0-.92.75-1.67,1.67-1.67h3.33c.92,0,1.67.75,1.67,1.67h0c0,.92-.75,1.67-1.67,1.67h-3.33c-.92,0-1.67-.75-1.67-1.67Zm0,7.78c0-.92.75-1.67,1.67-1.67h7.78c.92,0,1.67.75,1.67,1.67h0c0,.92-.75,1.67-1.67,1.67h-7.78c-.92,0-1.67-.75-1.67-1.67Z"/></svg>