<svg xmlns="http://www.w3.org/2000/svg" viewBox="0 0 24 24" height="16" width="16" fill="#fbb03c" stroke-width="0"><path d="m22.38,10.49c-.82-.81-2.13-.83-2.97-.04h-3.67l2.6-2.6c1.15-.03,2.07-.97,2.07-2.13s-.96-2.13-2.13-2.13-2.1.92-2.13,2.07l-2.6,2.6v-3.68c.38-.4.58-.91.58-1.46s-.22-1.1-.62-1.51c-.83-.83-2.18-.83-3.01,0-.4.4-.62.94-.62,1.51s.21,1.07.58,1.46v3.68l-2.6-2.6c-.03-1.15-.97-2.07-2.13-2.07s-2.13.96-2.13,2.13.92,2.1,2.07,2.13l2.6,2.6h-3.67c-.4-.38-.91-.58-1.46-.58s-1.1.22-1.51.62c-.83.83-.83,2.18,0,3.01.4.4.94.62,1.51.62s1.07-.21,1.46-.58h3.67l-2.6,2.6c-1.15.03-2.07.97-2.07,2.13s.96,2.13,2.13,2.13,2.1-.92,2.13-2.07l2.6-2.6v3.68c-.38.4-.58.91-.58,1.46s.22,1.1.62,1.51c.42.41.96.62,1.51.62s1.09-.21,1.51-.62c.4-.4.62-.94.62-1.51s-.21-1.07-.58-1.46v-3.68l2.6,2.6c.03,1.15.97,2.07,2.13,2.07s2.13-.96,2.13-2.13-.92-2.1-2.07-2.13l-2.6-2.6h3.67c.83.79,2.15.77,2.97-.04.83-.83.83-2.18,0-3.01Z"/></svg>