<svg xmlns="http://www.w3.org/2000/svg" viewBox="0 0 24 24" height="16" width="16" fill="none" stroke="currentColor" stroke-linecap="round" stroke-linejoin="round" stroke-width="2"><path d="m10.71,9.96c1.7.78,3.06,2.15,3.84,3.84"/><path d="m7.1,14.12s3.1-4.1,8.42-9.18c1.65-1.58,2.97-2.2,3.95-2.39,1.52-.29,2.79.98,2.5,2.5-.19.98-.81,2.3-2.39,3.95-5.08,5.32-9.18,8.42-9.18,8.42"/><path d="m6.67,21.5H2c.64-1.13.96-2.4.95-3.68,0-2.04,1.67-3.68,3.73-3.68s3.73,1.65,3.73,3.68-1.67,3.68-3.73,3.68h0Z"/></svg>