<svg xmlns="http://www.w3.org/2000/svg" width="24" height="24" viewBox="0 0 24 24"><circle cx="12" cy="6" r="4" fill="currentColor"/><path fill="currentColor" fill-rule="evenodd" d="m13.51,15.51c-.51.51-.51,1.34-.51,2.99s0,2.47.51,2.99c.51.51,1.34.51,2.99.51s2.47,0,2.99-.51c.51-.51.51-1.34.51-2.99s0-2.47-.51-2.99c-.51-.51-1.34-.51-2.99-.51s-2.47,0-2.99.51m3.76,3.53c.73,0,1.33-.59,1.33-1.32h0c0-.73-.6-1.32-1.33-1.32h0c-.73,0-1.33.59-1.33,1.32,0,.34.15.58.15.58l-1.6,1.6c-.07.07-.17.26,0,.43l.19.18c.07.06.25.15.4,0l.22-.21c.22.21.46.09.56-.03.15-.22-.03-.43-.03-.43l.06-.06c.3.3.56.12.65,0,.15-.22,0-.43,0-.43-.02-.03-.04-.06-.06-.08-.05-.05-.08-.08.03-.19l.19-.18c.15.12.45.15.59.15" clip-rule="evenodd"/><path fill="currentColor" d="m18.09,15.03c-.42-.03-.95-.03-1.59-.03-1.65,0-2.48,0-2.99.51-.51.51-.51,1.34-.51,2.99,0,1.17,0,1.92.18,2.44-.38.04-.78.06-1.18.06-3.87,0-7-1.79-7-4s3.13-4,7-4c2.61,0,4.89.82,6.09,2.03" opacity="0.5"/></svg>